<svg width="30" height="30" viewBox="0 0 30 30" fill="none" xmlns="http://www.w3.org/2000/svg">
<path d="M14.8997 2.50001C13.3078 2.51838 11.8526 2.9589 10.7225 3.74268C9.59884 4.52199 8.7664 5.72651 8.75714 7.13624L8.76202 7.04835C8.76202 7.04835 8.75288 7.14132 8.75226 7.146C8.75224 7.15035 8.74981 7.15386 8.74981 7.15821C8.74975 7.16644 8.74983 7.17439 8.74981 7.18262V7.18751C8.73516 7.29792 8.6501 7.91028 8.60089 8.82081C8.54749 9.80888 8.51419 10.9824 8.78888 12.0459C9.05379 13.0715 9.68221 14.4589 10.2659 15.7251C10.5508 16.343 10.606 16.441 10.8104 16.8628L3.25665 20.1001C3.22427 20.1142 3.19251 20.1297 3.16144 20.1465C3.15571 20.1497 3.15002 20.153 3.14435 20.1563C3.05815 20.2036 2.97784 20.261 2.90509 20.3272C2.90017 20.332 2.89528 20.3369 2.89044 20.3418C2.84468 20.3849 2.80224 20.4314 2.76349 20.481C2.75937 20.4866 2.7553 20.4923 2.75128 20.4981C2.73424 20.5203 2.71796 20.5431 2.70245 20.5664C2.69915 20.5721 2.6959 20.5778 2.69269 20.5835C2.67435 20.6129 2.65725 20.643 2.64142 20.6738L2.63898 20.6763C2.63733 20.6795 2.63571 20.6828 2.63409 20.686C2.62287 20.7077 2.61229 20.7297 2.60235 20.752C2.59986 20.7584 2.59742 20.765 2.59503 20.7715C2.52589 20.9376 2.49341 21.1166 2.49982 21.2964V26.25C2.49985 26.5815 2.63156 26.8994 2.86597 27.1339C3.10038 27.3683 3.4183 27.5 3.74981 27.5H21.2498C21.5813 27.5 21.8993 27.3683 22.1337 27.1339C22.3681 26.8995 22.4998 26.5815 22.4998 26.25C22.4998 25.9185 22.3681 25.6005 22.1337 25.3661C21.8993 25.1317 21.5813 25 21.2498 25H4.99981V22.0752L12.993 18.6499C13.1441 18.5853 13.281 18.4915 13.3958 18.3739C13.5106 18.2563 13.6011 18.1172 13.6621 17.9646C13.7231 17.812 13.7534 17.6488 13.7513 17.4845C13.7492 17.3201 13.7146 17.1578 13.6497 17.0068C13.6397 16.9854 13.6292 16.9642 13.618 16.9434L13.6033 16.9116L13.6009 16.9067C13.5846 16.8741 13.0928 15.887 12.5364 14.6802C11.971 13.4536 11.3493 11.9572 11.2108 11.4209C11.082 10.9225 11.0485 9.83725 11.096 8.95753C11.1435 8.0778 11.2376 7.38526 11.2376 7.38526C11.2462 7.32461 11.2502 7.26341 11.2498 7.20215C11.2498 7.19774 11.2498 7.19192 11.2498 7.18751C11.2498 7.18309 11.2498 7.1797 11.2498 7.1753C11.2499 7.1696 11.2499 7.16391 11.2498 7.15821C11.2497 6.71794 11.5002 6.24366 12.1458 5.7959C12.7914 5.34815 13.7927 5.01312 14.929 5.00001C14.95 4.99991 14.9715 4.99988 14.9925 5.00001H14.9998C16.1502 5.00001 17.1715 5.33105 17.8318 5.78126C18.4921 6.23146 18.7498 6.71222 18.7498 7.15821C18.7501 7.21457 18.7542 7.27085 18.762 7.32667C18.762 7.32667 18.8561 8.02257 18.9036 8.9087C18.9512 9.79482 18.9184 10.8898 18.7889 11.394C18.6497 11.9359 18.0287 13.4377 17.4632 14.6704C16.8985 15.9015 16.383 16.9382 16.3816 16.9409L16.3792 16.9434C16.3641 16.9737 16.3503 17.0047 16.3377 17.0361L16.3353 17.0386C16.3273 17.0603 16.32 17.0823 16.3133 17.1045C16.3052 17.1295 16.2978 17.1547 16.2913 17.1802C16.2869 17.1972 16.2828 17.2143 16.2791 17.2315C16.2783 17.2347 16.2775 17.238 16.2767 17.2412C16.272 17.2639 16.2679 17.2867 16.2645 17.3096C16.259 17.3428 16.255 17.3762 16.2523 17.4097V17.4146C16.25 17.4487 16.2492 17.4829 16.2498 17.5171C16.25 17.5521 16.2516 17.5872 16.2547 17.6221C16.2577 17.6515 16.2618 17.6808 16.2669 17.71C16.2692 17.7214 16.2716 17.7328 16.2742 17.7441C16.275 17.7498 16.2758 17.7555 16.2767 17.7612C16.2817 17.7842 16.2874 17.807 16.2938 17.8296C16.3029 17.8634 16.3135 17.8968 16.3255 17.9297C16.3344 17.9552 16.3442 17.9805 16.3548 18.0054C16.3595 18.016 16.3644 18.0266 16.3694 18.0371C16.383 18.0653 16.3977 18.093 16.4134 18.1201C16.4309 18.1502 16.4496 18.1795 16.4695 18.208C16.4865 18.2331 16.5045 18.2575 16.5232 18.2813C16.5289 18.2878 16.5346 18.2943 16.5403 18.3008C16.553 18.3157 16.566 18.3304 16.5794 18.3447C16.5905 18.358 16.6019 18.371 16.6136 18.3838C16.6333 18.4032 16.6537 18.4219 16.6746 18.4399L16.6795 18.4448H16.6819C16.7071 18.467 16.7332 18.4882 16.7601 18.5083C16.7885 18.5291 16.8178 18.5486 16.848 18.5669C16.8781 18.5853 16.9091 18.6024 16.9407 18.6182L16.9432 18.6206C16.9735 18.6357 17.0045 18.6495 17.0359 18.6621L17.0384 18.6646C17.0602 18.6725 17.0821 18.6798 17.1043 18.6865C17.1189 18.6917 17.1335 18.6966 17.1482 18.7012L20.8543 19.9365C21.0101 19.9886 21.1747 20.0094 21.3385 19.9978C21.5024 19.9862 21.6623 19.9424 21.8093 19.8689C21.9562 19.7955 22.0872 19.6938 22.1948 19.5696C22.3024 19.4455 22.3845 19.3014 22.4363 19.1455C22.4884 18.9897 22.5092 18.8252 22.4976 18.6613C22.486 18.4974 22.4422 18.3375 22.3687 18.1905C22.2953 18.0436 22.1936 17.9126 22.0694 17.805C21.9453 17.6974 21.8012 17.6153 21.6453 17.5635L19.2357 16.7603C19.4325 16.3496 19.4728 16.2816 19.7337 15.7129C20.3173 14.4406 20.9464 13.0459 21.2107 12.0166C21.4848 10.9497 21.4521 9.77065 21.3987 8.77686C21.3454 7.78307 21.2376 6.99219 21.2376 6.99219C21.1734 5.62852 20.3446 4.46862 19.2405 3.71583C18.093 2.93342 16.6152 2.50136 15.0071 2.50001C14.9741 2.49982 14.9401 2.49982 14.907 2.50001H14.8997ZM24.9998 18.75C24.6683 18.75 24.3503 18.8817 24.1159 19.1161C23.8815 19.3505 23.7498 19.6685 23.7498 20V21.25H22.4998C22.1683 21.25 21.8503 21.3817 21.6159 21.6161C21.3815 21.8505 21.2498 22.1685 21.2498 22.5C21.2498 22.8315 21.3815 23.1495 21.6159 23.3839C21.8503 23.6183 22.1683 23.75 22.4998 23.75H23.7498V25C23.7498 25.3315 23.8815 25.6495 24.1159 25.8839C24.3503 26.1183 24.6683 26.25 24.9998 26.25C25.3313 26.25 25.6493 26.1183 25.8837 25.8839C26.1181 25.6495 26.2498 25.3315 26.2498 25V23.75H27.4998C27.8313 23.75 28.1493 23.6183 28.3837 23.3839C28.6181 23.1495 28.7498 22.8315 28.7498 22.5C28.7498 22.1685 28.6181 21.8505 28.3837 21.6161C28.1493 21.3817 27.8313 21.25 27.4998 21.25H26.2498V20C26.2498 19.6685 26.1181 19.3505 25.8837 19.1161C25.6493 18.8817 25.3313 18.75 24.9998 18.75Z" fill="#F5F5F5"/>
</svg>
