<svg width="50" height="36" viewBox="0 0 50 36" fill="none" xmlns="http://www.w3.org/2000/svg">
<g clip-path="url(#clip0_498_1294)">
<path d="M2.34375 35.7601H47.6562C48.9484 35.7601 50 35.017 50 34.1038V2.08301C50 1.16986 48.9484 0.426758 47.6562 0.426758H2.34375C1.05156 0.426758 0 1.16986 0 2.08301V34.1038C0 35.017 1.05156 35.7601 2.34375 35.7601ZM1.5625 2.08301C1.5625 1.77826 1.9125 1.53092 2.34375 1.53092H47.6562C48.0875 1.53092 48.4375 1.77826 48.4375 2.08301V34.1038C48.4375 34.4086 48.0875 34.6559 47.6562 34.6559H2.34375C1.9125 34.6559 1.5625 34.4086 1.5625 34.1038V2.08301Z" fill="#F5F5F5"/>
<path d="M31.5996 22.9153C31.7527 23.0235 31.9527 23.0765 32.1527 23.0765C32.3527 23.0765 32.5527 23.0224 32.7059 22.9153L38.9777 18.4831C39.2824 18.2678 39.2824 17.9178 38.9777 17.7025L32.7059 13.2704C32.4012 13.0551 31.9059 13.0551 31.6012 13.2704C31.2965 13.4857 31.2965 13.8357 31.6012 14.051L37.3199 18.0923L31.6012 22.1335C31.2934 22.3499 31.2934 22.7 31.5996 22.9153Z" fill="#F5F5F5"/>
<path d="M16.9769 22.9207C17.116 22.9936 17.2801 23.0289 17.441 23.0289C17.6801 23.0289 17.916 22.9516 18.0691 22.8048C18.3269 22.5597 18.2535 22.2141 17.9066 22.033L11.4051 18.6333L16.216 14.0388C16.4738 13.7937 16.4004 13.4481 16.0535 13.267C15.7066 13.0837 15.2176 13.1378 14.9613 13.3818L9.68631 18.4201C9.4285 18.6653 9.50194 19.0109 9.84881 19.192L16.9769 22.9207Z" fill="#F5F5F5"/>
<path d="M21.8972 24.694C21.9738 24.7106 22.0535 24.7183 22.1285 24.7183C22.4613 24.7183 22.7706 24.567 22.8753 24.3296L28.2113 12.1838C28.3394 11.8923 28.1097 11.5831 27.6972 11.4926C27.2831 11.4021 26.8472 11.5644 26.7191 11.8559L21.3831 24.0017C21.255 24.2943 21.4847 24.6035 21.8972 24.694Z" fill="#F5F5F5"/>
</g>
<defs>
<clipPath id="clip0_498_1294">
<rect width="50" height="35.3333" fill="white" transform="translate(0 0.426758)"/>
</clipPath>
</defs>
</svg>
