<svg width="16" height="16" viewBox="0 0 16 16" fill="none" xmlns="http://www.w3.org/2000/svg">
<path d="M15.9955 3.17428C15.9585 2.61609 15.6805 2.06916 15.2332 1.67398L15.1242 1.5779C14.654 1.16218 14.0357 0.933334 13.384 0.933334C12.7677 0.933334 12.193 1.14119 11.7652 1.51914L1.73495 10.3817C0.960698 11.0656 0.165698 13.8444 0.0141975 14.3945C-0.0270525 14.5447 0.0229475 14.7026 0.146448 14.8117L0.255198 14.9076C0.349948 14.9918 0.477698 15.037 0.608698 15.037C0.644448 15.037 0.680448 15.0339 0.716198 15.0267C1.35145 14.9032 4.55945 14.2522 5.3372 13.565L15.3685 4.70263C15.8125 4.31032 16.0352 3.76759 15.9955 3.17428ZM11.477 4.22616C11.5257 4.26924 11.5897 4.29089 11.6537 4.29089C11.7177 4.29089 11.7817 4.26924 11.8305 4.22616L12.5845 3.55996L13.0585 3.97854L4.3117 11.7069L3.83795 11.2883L11.107 4.86587C11.2047 4.7795 11.2047 4.63989 11.107 4.55353C11.0092 4.46716 10.8512 4.46716 10.7535 4.55353L3.48445 10.9759L2.98045 10.5304L11.727 2.80252L12.231 3.24761L11.477 3.91382C11.3795 4.00019 11.3795 4.1398 11.477 4.22616ZM5.1687 12.4641L4.66495 12.019L13.4117 4.29089L13.9157 4.73598L5.1687 12.4641ZM1.56995 12.7806L2.5917 13.6836C2.1182 13.8089 1.6187 13.9279 1.15295 14.0293C1.2762 13.6251 1.41995 13.1915 1.56995 12.7806ZM3.12995 13.5345L1.7477 12.313C1.99545 11.6899 2.2462 11.1792 2.44195 11.0064L2.62695 10.843L3.30745 11.4442L3.3082 11.4449L4.8152 12.7767L4.6302 12.9401C4.43545 13.1122 3.8482 13.3262 3.12995 13.5345ZM14.6612 4.0775L14.2692 4.42386L12.7617 3.09189L12.0807 2.4904L12.4727 2.14404C12.7115 1.93309 13.0352 1.81712 13.3842 1.81712C13.769 1.81712 14.136 1.95407 14.4175 2.2028L14.5262 2.29889C14.803 2.54297 14.9745 2.88116 14.9975 3.22641C15.0197 3.56371 14.9005 3.86611 14.6612 4.0775Z" fill="#333333"/>
</svg>
