<svg width="13" height="13" viewBox="0 0 13 13" fill="none" xmlns="http://www.w3.org/2000/svg">
<g clip-path="url(#clip0_52_53)">
<path d="M6.80471 3.04107C7.64448 3.04107 8.32524 2.3603 8.32524 1.52054C8.32524 0.680771 7.64448 5.72205e-06 6.80471 5.72205e-06C5.96494 5.72205e-06 5.28418 0.680771 5.28418 1.52054C5.28418 2.3603 5.96494 3.04107 6.80471 3.04107Z" fill="#4F4F4F"/>
<path d="M6.8048 13C7.3086 13 7.71702 12.5916 7.71702 12.0878C7.71702 11.584 7.3086 11.1756 6.8048 11.1756C6.30099 11.1756 5.89258 11.584 5.89258 12.0878C5.89258 12.5916 6.30099 13 6.8048 13Z" fill="#4F4F4F"/>
<path d="M3.06828 4.43628C3.82413 4.43628 4.43686 3.82355 4.43686 3.0677C4.43686 2.31186 3.82413 1.69913 3.06828 1.69913C2.31244 1.69913 1.69971 2.31186 1.69971 3.0677C1.69971 3.82355 2.31244 4.43628 3.06828 4.43628Z" fill="#4F4F4F"/>
<path d="M10.541 11.2999C10.9609 11.2999 11.3013 10.9595 11.3013 10.5396C11.3013 10.1197 10.9609 9.77935 10.541 9.77935C10.1211 9.77935 9.78076 10.1197 9.78076 10.5396C9.78076 10.9595 10.1211 11.2999 10.541 11.2999Z" fill="#4F4F4F"/>
<path d="M1.52082 8.02053C2.19247 8.02053 2.73695 7.47605 2.73695 6.8044C2.73695 6.13275 2.19247 5.58827 1.52082 5.58827C0.849167 5.58827 0.304688 6.13275 0.304688 6.8044C0.304688 7.47605 0.849167 8.02053 1.52082 8.02053Z" fill="#4F4F4F"/>
<path d="M12.0883 7.41173C12.424 7.41173 12.6961 7.1396 12.6961 6.80391C12.6961 6.46822 12.424 6.19609 12.0883 6.19609C11.7526 6.19609 11.4805 6.46822 11.4805 6.80391C11.4805 7.1396 11.7526 7.41173 12.0883 7.41173Z" fill="#4F4F4F"/>
<path d="M2.31632 9.78823C1.90042 10.2041 1.90042 10.8771 2.31632 11.293C2.73173 11.7089 3.40566 11.7089 3.82106 11.293C4.23697 10.8771 4.23697 10.2041 3.82106 9.78823C3.40566 9.37184 2.73222 9.36789 2.31632 9.78823Z" fill="#4F4F4F"/>
<path d="M10.5403 3.52357C10.7921 3.52357 10.9962 3.31947 10.9962 3.0677C10.9962 2.81594 10.7921 2.61184 10.5403 2.61184C10.2886 2.61184 10.0845 2.81594 10.0845 3.0677C10.0845 3.31947 10.2886 3.52357 10.5403 3.52357Z" fill="#4F4F4F"/>
</g>
<defs>
<clipPath id="clip0_52_53">
<rect width="13" height="13" fill="white"/>
</clipPath>
</defs>
</svg>
