<svg width="20" height="20" viewBox="0 0 20 20" fill="none" xmlns="http://www.w3.org/2000/svg">
<path d="M14.1667 6.5V4.83333C14.1667 3.72827 13.7277 2.66846 12.9463 1.88706C12.1649 1.10565 11.1051 0.666668 10 0.666668C8.89494 0.666668 7.83513 1.10565 7.05373 1.88706C6.27233 2.66846 5.83334 3.72827 5.83334 4.83333V6.5C5.1703 6.5 4.53442 6.76339 4.06558 7.23223C3.59674 7.70107 3.33334 8.33696 3.33334 9V14.8333C3.33334 15.4964 3.59674 16.1323 4.06558 16.6011C4.53442 17.0699 5.1703 17.3333 5.83334 17.3333H14.1667C14.8297 17.3333 15.4656 17.0699 15.9344 16.6011C16.4033 16.1323 16.6667 15.4964 16.6667 14.8333V9C16.6667 8.33696 16.4033 7.70107 15.9344 7.23223C15.4656 6.76339 14.8297 6.5 14.1667 6.5ZM7.50001 4.83333C7.50001 4.17029 7.7634 3.53441 8.23224 3.06557C8.70108 2.59673 9.33697 2.33333 10 2.33333C10.6631 2.33333 11.2989 2.59673 11.7678 3.06557C12.2366 3.53441 12.5 4.17029 12.5 4.83333V6.5H7.50001V4.83333ZM15 14.8333C15 15.0543 14.9122 15.2663 14.7559 15.4226C14.5997 15.5789 14.3877 15.6667 14.1667 15.6667H5.83334C5.61233 15.6667 5.40037 15.5789 5.24409 15.4226C5.08781 15.2663 5.00001 15.0543 5.00001 14.8333V9C5.00001 8.77899 5.08781 8.56703 5.24409 8.41075C5.40037 8.25447 5.61233 8.16667 5.83334 8.16667H14.1667C14.3877 8.16667 14.5997 8.25447 14.7559 8.41075C14.9122 8.56703 15 8.77899 15 9V14.8333Z" fill="black"/>
</svg>
