<svg width="20" height="20" viewBox="0 0 20 20" fill="none" xmlns="http://www.w3.org/2000/svg">
<path d="M10.9375 9.0625V1.25C10.9375 1.00136 10.8387 0.7629 10.6629 0.587087C10.4871 0.411275 10.2486 0.3125 10 0.3125C9.75138 0.3125 9.51287 0.411275 9.33712 0.587087C9.16125 0.7629 9.0625 1.00136 9.0625 1.25V9.0625H1.25C1.00136 9.0625 0.7629 9.16125 0.587087 9.33712C0.411275 9.51287 0.3125 9.75138 0.3125 10C0.3125 10.2486 0.411275 10.4871 0.587087 10.6629C0.7629 10.8387 1.00136 10.9375 1.25 10.9375H9.0625V18.75C9.06575 18.9976 9.1655 19.2343 9.34062 19.4094C9.51575 19.5845 9.75237 19.6842 10 19.6875C10.2486 19.6875 10.4871 19.5888 10.6629 19.4129C10.8387 19.2371 10.9375 18.9986 10.9375 18.75V10.9375H18.75C18.9986 10.9375 19.2371 10.8387 19.4129 10.6629C19.5888 10.4871 19.6875 10.2486 19.6875 10C19.6842 9.75237 19.5845 9.51575 19.4094 9.34062C19.2343 9.1655 18.9976 9.06575 18.75 9.0625H10.9375Z" fill="#333333"/>
</svg>
