<svg width="14" height="16" viewBox="0 0 14 16" fill="none" xmlns="http://www.w3.org/2000/svg">
<path fill-rule="evenodd" clip-rule="evenodd" d="M9.28863 9.8322H9.89837L13.75 13.8947L12.6 15.1053L8.7406 11.0509V10.4091L8.53218 10.1815C7.6522 10.9778 6.50987 11.4572 5.26715 11.4572C2.49614 11.4572 0.25 9.09278 0.25 6.17595C0.25 3.25908 2.49614 0.89473 5.26715 0.89473C8.03815 0.89473 10.2843 3.25908 10.2843 6.17595C10.2843 7.48407 9.82893 8.68652 9.07248 9.61281L9.28863 9.8322ZM1.79374 6.17595C1.79374 8.19902 3.3452 9.8322 5.26715 9.8322C7.18907 9.8322 8.7406 8.19902 8.7406 6.17595C8.7406 4.15283 7.18907 2.51972 5.26715 2.51972C3.3452 2.51972 1.79374 4.15283 1.79374 6.17595Z" fill="#333333"/>
</svg>
