<svg width="50" height="36" viewBox="0 0 50 36" fill="none" xmlns="http://www.w3.org/2000/svg">
<g clip-path="url(#clip0_498_1302)">
<path d="M21.2424 0.346905C20.962 0.352313 20.7035 0.45506 20.5513 0.621498L18.0872 3.23356H9.695C9.22548 3.23356 8.84473 3.50262 8.84473 3.83442V9.84302C8.84473 10.1748 9.22548 10.4439 9.695 10.4439H18.1977C18.6673 10.4439 19.048 10.1748 19.048 9.84302V5.10235L17.3475 6.90493V9.24216H10.5453V4.43528H16.9533L14.5618 6.97018L13.5166 5.49291C13.3117 5.19428 12.8031 5.06954 12.3805 5.21435C11.9579 5.35916 11.7814 5.71859 11.9863 6.01722C11.9894 6.02155 11.9923 6.02587 11.9955 6.0302L13.696 8.43364C13.9061 8.73046 14.4167 8.85088 14.8369 8.70246C14.9692 8.65572 15.082 8.58542 15.1641 8.49841L21.9663 1.28809C22.2325 1.01458 22.1345 0.640485 21.7475 0.452416C21.599 0.380433 21.4223 0.34342 21.2424 0.346905ZM24.9999 5.63724C24.5304 5.63724 24.1497 5.9063 24.1497 6.2381V7.43982C24.1497 7.77161 24.5304 8.04068 24.9999 8.04068H40.3049C40.7744 8.04068 41.1551 7.77161 41.1551 7.43982V6.2381C41.1551 5.9063 40.7744 5.63724 40.3049 5.63724H24.9999ZM9.695 11.65C9.22548 11.65 8.84473 11.9191 8.84473 12.2509V18.2595C8.84473 18.5913 9.22548 18.8604 9.695 18.8604H18.1977C18.6673 18.8604 19.048 18.5913 19.048 18.2595V12.2509C19.048 11.9191 18.6673 11.65 18.1977 11.65H9.695ZM10.5453 12.8518H17.3475V17.6586H10.5453V12.8518ZM24.9999 14.049C24.5304 14.049 24.1497 14.3181 24.1497 14.6499V15.8516C24.1497 16.1834 24.5304 16.4525 24.9999 16.4525H40.3049C40.7744 16.4525 41.1551 16.1834 41.1551 15.8516V14.6499C41.1551 14.3181 40.7744 14.049 40.3049 14.049H24.9999ZM9.695 20.0576C9.22548 20.0576 8.84473 20.3267 8.84473 20.6585V26.6671C8.84473 26.9989 9.22548 27.268 9.695 27.268H18.1977C18.6673 27.268 19.048 26.9989 19.048 26.6671V20.6585C19.048 20.3267 18.6673 20.0576 18.1977 20.0576H9.695ZM10.5453 21.2594H17.3475V26.0662H10.5453V21.2594ZM24.9999 22.4653C24.5304 22.4653 24.1497 22.7343 24.1497 23.0661V24.2679C24.1497 24.5997 24.5304 24.8687 24.9999 24.8687H40.3049C40.7744 24.8687 41.1551 24.5997 41.1551 24.2679V23.0661C41.1551 22.7343 40.7744 22.4653 40.3049 22.4653H24.9999ZM9.695 28.4697C9.22548 28.4697 8.84473 28.7387 8.84473 29.0705V35.0791C8.84473 35.4109 9.22548 35.68 9.695 35.68H18.1977C18.6673 35.68 19.048 35.4109 19.048 35.0791V29.0705C19.048 28.7387 18.6673 28.4697 18.1977 28.4697H9.695ZM10.5453 29.6714H17.3475V34.4783H10.5453V29.6714ZM24.9999 30.8731C24.5304 30.8731 24.1497 31.1422 24.1497 31.474V32.6757C24.1497 33.0075 24.5304 33.2766 24.9999 33.2766H40.3049C40.7744 33.2766 41.1551 33.0075 41.1551 32.6757V31.474C41.1551 31.1422 40.7744 30.8731 40.3049 30.8731H24.9999Z" fill="#F5F5F5"/>
</g>
<defs>
<clipPath id="clip0_498_1302">
<rect width="50" height="35.3333" fill="white" transform="translate(0 0.34668)"/>
</clipPath>
</defs>
</svg>
