<svg width="20" height="20" viewBox="0 0 20 20" fill="none" xmlns="http://www.w3.org/2000/svg">
<g clip-path="url(#clip0_185_260)">
<path d="M14.6034 3.9578L15.2292 2.764L14.0613 2.15169L13.436 3.34448C12.5736 2.97239 11.6393 2.73573 10.6593 2.66215V1.31868H12.781V-3.8147e-06H7.21887V1.31868H9.34058V2.66211C8.36058 2.73569 7.42616 2.97239 6.56383 3.34444L5.93852 2.15164L4.7706 2.76395L5.39649 3.9578C2.94739 5.49266 1.3186 8.21525 1.3186 11.3187C1.3186 16.1132 5.20537 20 9.99992 20C14.7945 20 18.6812 16.1132 18.6812 11.3187C18.6812 8.21521 17.0524 5.49266 14.6034 3.9578ZM15.6043 11.978H9.34058V5.71428H10.6593V10.6593H15.6043V11.978Z" fill="black"/>
</g>
<defs>
<clipPath id="clip0_185_260">
<rect width="20" height="20" fill="white"/>
</clipPath>
</defs>
</svg>
