<svg width="20" height="18" viewBox="0 0 20 18" fill="none" xmlns="http://www.w3.org/2000/svg">
<path fill-rule="evenodd" clip-rule="evenodd" d="M7.49967 3.8432C7.49967 3.03182 8.24587 2.37407 9.16634 2.37407H10.833C11.7535 2.37407 12.4997 3.03182 12.4997 3.8432V4.57777H14.1663H15.833C16.2933 4.57777 16.6663 4.90665 16.6663 5.31234C16.6663 5.71803 16.2933 6.04691 15.833 6.04691H14.9997V13.3926C14.9997 14.6097 13.8804 15.5963 12.4997 15.5963H7.49967C6.11897 15.5963 4.99967 14.6097 4.99967 13.3926V6.04691H4.16634C3.70611 6.04691 3.33301 5.71803 3.33301 5.31234C3.33301 4.90665 3.70611 4.57777 4.16634 4.57777H5.83301H7.49967V3.8432ZM8.33301 6.04691H6.66634V13.3926C6.66634 13.7983 7.03944 14.1272 7.49967 14.1272H12.4997C12.9599 14.1272 13.333 13.7983 13.333 13.3926V6.04691H11.6663H8.33301ZM10.833 4.57777H9.16634V3.8432H10.833V4.57777ZM8.33301 6.78148C8.79326 6.78148 9.16634 7.11036 9.16634 7.51604V12.658C9.16634 13.0637 8.79326 13.3926 8.33301 13.3926C7.87277 13.3926 7.49967 13.0637 7.49967 12.658V7.51604C7.49967 7.11036 7.87277 6.78148 8.33301 6.78148ZM11.6663 6.78148C12.1266 6.78148 12.4997 7.11036 12.4997 7.51604V12.658C12.4997 13.0637 12.1266 13.3926 11.6663 13.3926C11.2061 13.3926 10.833 13.0637 10.833 12.658V7.51604C10.833 7.11036 11.2061 6.78148 11.6663 6.78148Z" fill="#333333"/>
</svg>
